<svg xmlns="http://www.w3.org/2000/svg" viewBox="0 0 500 500"><g id="freepik--background-complete--inject-247"><rect y="382.4" width="500" height="0.25" style="fill:#e0e0e0"></rect><rect x="344.93" y="391.62" width="34.4" height="0.25" style="fill:#e0e0e0"></rect><rect x="400.44" y="390.91" width="19.36" height="0.25" style="fill:#e0e0e0"></rect><rect x="221.66" y="391.5" width="25.68" height="0.25" style="fill:#e0e0e0"></rect><rect x="248.35" y="395.05" width="17.54" height="0.25" style="fill:#e0e0e0"></rect><rect x="91.68" y="388.97" width="52.99" height="0.25" style="fill:#e0e0e0"></rect><path d="M237,337.8H43.91a5.71,5.71,0,0,1-5.7-5.71V60.66A5.71,5.71,0,0,1,43.91,55H237a5.71,5.71,0,0,1,5.71,5.71V332.09A5.71,5.71,0,0,1,237,337.8ZM43.91,55.2a5.46,5.46,0,0,0-5.45,5.46V332.09a5.46,5.46,0,0,0,5.45,5.46H237a5.47,5.47,0,0,0,5.46-5.46V60.66A5.47,5.47,0,0,0,237,55.2Z" style="fill:#e0e0e0"></path><path d="M453.31,337.8H260.21a5.72,5.72,0,0,1-5.71-5.71V60.66A5.72,5.72,0,0,1,260.21,55h193.1A5.71,5.71,0,0,1,459,60.66V332.09A5.71,5.71,0,0,1,453.31,337.8ZM260.21,55.2a5.47,5.47,0,0,0-5.46,5.46V332.09a5.47,5.47,0,0,0,5.46,5.46h193.1a5.47,5.47,0,0,0,5.46-5.46V60.66a5.47,5.47,0,0,0-5.46-5.46Z" style="fill:#e0e0e0"></path><rect x="283.33" y="79.27" width="150.7" height="129.56" style="fill:#e0e0e0"></rect><rect x="286.68" y="79.27" width="150.7" height="129.56" style="fill:#f0f0f0"></rect><rect x="303.33" y="74.71" width="117.4" height="138.68" transform="translate(506.08 -217.98) rotate(90)" style="fill:#fafafa"></rect><rect x="323.82" y="139.51" width="117.4" height="9.06" transform="translate(526.56 -238.47) rotate(90)" style="fill:#e0e0e0"></rect><rect x="276.15" y="139.51" width="117.4" height="9.06" transform="translate(478.9 -190.8) rotate(90)" style="fill:#e0e0e0"></rect><rect x="322.81" y="139.18" width="125.78" height="9.06" transform="translate(529.42 -241.99) rotate(90)" style="fill:#f0f0f0"></rect><rect x="275.15" y="139.18" width="125.78" height="9.06" transform="translate(481.75 -194.32) rotate(90)" style="fill:#f0f0f0"></rect><rect x="371.4" y="142.78" width="117.4" height="2.53" transform="translate(574.15 -286.06) rotate(90)" style="fill:#e0e0e0"></rect><path d="M177.34,181.59S159,150,184.45,124.81c0,0,6.64,4.33,6.54,10.15s-7.12,7.29-5.61,12.15,8.12,9.61,3.78,13.63.7,7.58.41,12.5S177.34,181.59,177.34,181.59Z" style="fill:#e0e0e0"></path><path d="M180.22,186.76s7.44-35.78-24.64-51.64c0,0-4.94,6.2-3,11.69s9.05,4.67,9.15,9.76-4.67,11.69.71,14.13,1.73,7.42,3.56,12S180.22,186.76,180.22,186.76Z" style="fill:#e6e6e6"></path><path d="M163.89,177.67s.32,30.89,12.67,30.89,12.66-30.89,12.66-30.89Z" style="fill:#f0f0f0"></path><path d="M89.69,196.94s.69,11.62,27.06,11.62,27.07-11.62,27.07-11.62Z" style="fill:#e6e6e6"></path><rect x="350.64" y="267" width="20.2" height="29.3" rx="3.14" style="fill:#f0f0f0"></rect><rect x="393.14" y="276.58" width="13.59" height="19.72" rx="2.11" style="fill:#e6e6e6"></rect><rect x="393.14" y="274.67" width="13.59" height="2.22" rx="0.71" style="fill:#f0f0f0"></rect><path d="M318.42,280s.5,16.3,19.59,16.3,19.6-16.3,19.6-16.3Z" style="fill:#e6e6e6"></path><rect x="270.94" y="252.78" width="28.89" height="5.7" transform="translate(570.77 511.25) rotate(180)" style="fill:#e0e0e0"></rect><rect x="299.83" y="252.78" width="143.63" height="5.7" style="fill:#f0f0f0"></rect><rect x="270.94" y="296.3" width="28.89" height="5.7" transform="translate(570.77 598.3) rotate(180)" style="fill:#e0e0e0"></rect><rect x="299.83" y="296.3" width="143.63" height="5.7" style="fill:#f0f0f0"></rect><rect x="276.02" y="258.47" width="5.33" height="123.92" style="fill:#e0e0e0"></rect><rect x="299.83" y="258.47" width="5.33" height="123.92" style="fill:#f0f0f0"></rect><rect x="419.65" y="258.47" width="5.33" height="123.92" style="fill:#e0e0e0"></rect><rect x="438.13" y="258.47" width="5.33" height="123.92" style="fill:#f0f0f0"></rect><rect x="62.37" y="215.81" width="27.32" height="159.09" style="fill:#e6e6e6"></rect><rect x="67.62" y="374.89" width="134.72" height="7.51" style="fill:#e6e6e6"></rect><rect x="89.69" y="215.81" width="117.89" height="159.09" transform="translate(297.27 590.7) rotate(180)" style="fill:#f0f0f0"></rect><rect x="100.43" y="275.92" width="96.41" height="38.86" transform="translate(297.27 590.7) rotate(180)" style="fill:#e6e6e6"></rect><rect x="100.43" y="321.86" width="96.41" height="38.86" transform="translate(297.27 682.58) rotate(180)" style="fill:#e6e6e6"></rect><path d="M159.46,280.18H137.81a2.67,2.67,0,0,1-2.66-2.66h0a2.67,2.67,0,0,1,2.66-2.67h21.65a2.67,2.67,0,0,1,2.66,2.67h0A2.67,2.67,0,0,1,159.46,280.18Z" style="fill:#f0f0f0"></path><rect x="100.43" y="229.98" width="96.41" height="38.86" transform="translate(297.27 498.81) rotate(180)" style="fill:#e6e6e6"></rect><path d="M159.46,234.24H137.81a2.67,2.67,0,0,1-2.66-2.67h0a2.67,2.67,0,0,1,2.66-2.66h21.65a2.67,2.67,0,0,1,2.66,2.66h0A2.67,2.67,0,0,1,159.46,234.24Z" style="fill:#f0f0f0"></path><path d="M159.46,326.12H137.81a2.67,2.67,0,0,1-2.66-2.66h0a2.67,2.67,0,0,1,2.66-2.67h21.65a2.67,2.67,0,0,1,2.66,2.67h0A2.67,2.67,0,0,1,159.46,326.12Z" style="fill:#f0f0f0"></path><rect x="89.69" y="208.56" width="121.53" height="7.25" style="fill:#e6e6e6"></rect><rect x="58.56" y="208.56" width="31.14" height="7.25" transform="translate(148.25 424.36) rotate(180)" style="fill:#e0e0e0"></rect><rect x="75.94" y="85.35" width="44.2" height="48.54" style="fill:#e6e6e6"></rect><rect x="79.27" y="85.35" width="45.66" height="48.54" style="fill:#f0f0f0"></rect><rect x="81.65" y="90.61" width="40.89" height="38.01" transform="translate(211.71 7.52) rotate(90)" style="fill:#fafafa"></rect><rect x="91.56" y="99.82" width="21.07" height="19.58" transform="translate(211.71 7.52) rotate(90)" style="fill:#f0f0f0"></rect><rect x="133.22" y="71.02" width="33.52" height="36.01" style="fill:#e6e6e6"></rect><rect x="136.43" y="71.02" width="33.87" height="36.01" style="fill:#f0f0f0"></rect><rect x="138.2" y="74.92" width="30.33" height="28.19" transform="translate(242.38 -64.34) rotate(90)" style="fill:#fafafa"></rect><polygon points="153.36 81.35 145.65 94.71 161.07 94.71 153.36 81.35" style="fill:#f0f0f0"></polygon></g><g id="freepik--Shadow--inject-247"><ellipse cx="250" cy="416.24" rx="193.89" ry="11.32" style="fill:#f5f5f5"></ellipse></g><g id="freepik--speech-bubbles--inject-247"><rect x="312.33" y="145.82" width="116.84" height="45.42" rx="9.37" style="fill:#7E57C2"></rect><rect x="322.07" y="153.48" width="79.91" height="5.08" rx="1.64" style="fill:#7E57C2"></rect><rect x="322.07" y="165.72" width="55.64" height="5.08" rx="1.64" style="fill:#7E57C2"></rect><rect x="322.07" y="177.96" width="41.6" height="5.08" rx="1.64" style="fill:#7E57C2"></rect><rect x="369.56" y="177.96" width="41.6" height="5.08" rx="1.64" style="fill:#7E57C2"></rect><g style="opacity:0.5"><rect x="322.07" y="153.48" width="79.91" height="5.08" rx="1.64" style="fill:#fff"></rect><rect x="322.07" y="165.72" width="55.64" height="5.08" rx="1.64" style="fill:#fff"></rect><rect x="322.07" y="177.96" width="41.6" height="5.08" rx="1.64" style="fill:#fff"></rect><rect x="369.56" y="177.96" width="41.6" height="5.08" rx="1.64" style="fill:#fff"></rect></g><rect x="216.13" y="135.23" width="138.83" height="66.6" rx="13.74" style="fill:#7E57C2"></rect><rect x="230.41" y="146.46" width="117.16" height="7.45" rx="2.41" style="fill:#7E57C2"></rect><rect x="230.41" y="164.41" width="81.57" height="7.45" rx="2.41" style="fill:#7E57C2"></rect><rect x="230.41" y="182.36" width="60.99" height="7.45" rx="2.41" style="fill:#7E57C2"></rect><rect x="300.04" y="182.36" width="51.62" height="7.45" rx="2.41" style="fill:#7E57C2"></rect><g style="opacity:0.5"><rect x="230.41" y="146.46" width="117.16" height="7.45" rx="2.41" style="fill:#fff"></rect><rect x="230.41" y="164.41" width="81.57" height="7.45" rx="2.41" style="fill:#fff"></rect><rect x="230.41" y="182.36" width="60.99" height="7.45" rx="2.41" style="fill:#fff"></rect><rect x="300.04" y="182.36" width="51.62" height="7.45" rx="2.41" style="fill:#fff"></rect></g><rect x="211.94" y="213.9" width="66.47" height="93.18" rx="6.42" style="fill:#7E57C2"></rect><rect x="211.94" y="213.9" width="66.47" height="93.18" rx="6.42" style="opacity:0.4"></rect><rect x="219.63" y="223.62" width="51.08" height="4.13" rx="1.18" style="fill:#fafafa"></rect><rect x="219.63" y="233.56" width="35.57" height="4.13" rx="1.18" style="fill:#fafafa"></rect><rect x="219.63" y="243.51" width="51.08" height="4.13" rx="1.18" style="fill:#fafafa"></rect><rect x="219.63" y="253.45" width="20.47" height="4.13" rx="1.18" style="fill:#fafafa"></rect><rect x="244.97" y="253.45" width="20.47" height="4.13" rx="1.18" style="fill:#fafafa"></rect><rect x="219.63" y="263.4" width="51.08" height="4.13" rx="1.18" style="fill:#fafafa"></rect><rect x="219.63" y="273.34" width="51.08" height="4.13" rx="1.18" style="fill:#fafafa"></rect><rect x="219.63" y="283.29" width="42.44" height="4.13" rx="1.18" style="fill:#fafafa"></rect><rect x="219.63" y="293.23" width="21.06" height="4.13" rx="1.18" style="fill:#fafafa"></rect><path d="M286.5,213.33H212.11L245,239.5l50.43,19V222.24A8.93,8.93,0,0,0,286.5,213.33Z" style="fill:#7E57C2"></path><path d="M286.5,213.33H212.11L245,239.5l50.43,19V222.24A8.93,8.93,0,0,0,286.5,213.33Z" style="opacity:0.4"></path><rect x="227.34" y="226.81" width="57.39" height="5.72" rx="1.48" style="fill:#fafafa"></rect><rect x="329.04" y="205.32" width="66.84" height="105.37" rx="7.26" transform="translate(620.47 -104.45) rotate(90)" style="fill:#7E57C2"></rect><rect x="345.63" y="188.73" width="66.84" height="105.37" rx="7.26" transform="translate(620.47 -137.62) rotate(90)" style="fill:#7E57C2"></rect><rect x="345.63" y="188.73" width="66.84" height="105.37" rx="7.26" transform="translate(620.47 -137.62) rotate(90)" style="fill:#fff;opacity:0.5"></rect><rect x="385.1" y="215.48" width="38.67" height="36.15" rx="3.23" transform="translate(638 -170.88) rotate(90)" style="fill:#7E57C2"></rect><rect x="385.1" y="215.48" width="38.67" height="36.15" rx="3.23" transform="translate(638 -170.88) rotate(90)" style="fill:#fff;opacity:0.7000000000000001"></rect><rect x="352.04" y="239.04" width="29.64" height="27.71" rx="2.48" transform="translate(619.75 -113.96) rotate(90)" style="fill:#7E57C2"></rect><rect x="352.04" y="239.04" width="29.64" height="27.71" rx="2.48" transform="translate(619.75 -113.96) rotate(90)" style="fill:#fff;opacity:0.30000000000000004"></rect><rect x="223.36" y="-27.34" width="28.09" height="258.89" rx="7.38" transform="translate(339.51 -135.31) rotate(90)" style="fill:#7E57C2"></rect><rect x="223.36" y="-27.34" width="28.09" height="258.89" rx="7.38" transform="translate(339.51 -135.31) rotate(90)" style="fill:#fff;opacity:0.5"></rect><rect x="280.71" y="80.88" width="9.67" height="70.25" transform="translate(401.54 -169.54) rotate(90)" style="fill:#7E57C2"></rect><rect x="280.71" y="80.88" width="9.67" height="70.25" transform="translate(401.54 -169.54) rotate(90)" style="fill:#fff;opacity:0.5"></rect><rect x="248.54" y="-68.85" width="28.09" height="258.89" rx="7.38" transform="translate(323.19 -201.99) rotate(90)" style="fill:#7E57C2"></rect></g><g id="freepik--Character--inject-247"><path d="M130.36,194.26c-.88,2-1.85,4.16-2.7,6.27s-1.73,4.28-2.5,6.44a91.35,91.35,0,0,0-3.79,12.93l-.29,1.6-.1.6c0,.17,0,.39-.06.59a24.53,24.53,0,0,0,.06,2.92c.19,2.11.53,4.37,1,6.63.84,4.53,1.91,9.2,3,13.8l-5.13,2a92.65,92.65,0,0,1-6.09-13.59,57,57,0,0,1-2.12-7.47,26.81,26.81,0,0,1-.56-4.26c0-.4,0-.78,0-1.21s0-.91.07-1.19l.2-2a63,63,0,0,1,1.37-7.65c.56-2.5,1.28-4.93,2-7.33s1.62-4.76,2.57-7.08c.47-1.16,1-2.31,1.46-3.46s1-2.25,1.64-3.48Z" style="fill:#e4897b"></path><path d="M124.71,244.69l3.9,3.81-8.51,4s-2.06-3.61-.63-6.87Z" style="fill:#e4897b"></path><polygon points="131.76 254.17 124.57 257.11 120.11 252.46 128.61 248.5 131.76 254.17" style="fill:#e4897b"></polygon><path d="M277.41,250.07A72,72,0,1,1,357,186.5,72,72,0,0,1,277.41,250.07Z" style="fill:#fafafa;opacity:0.4"></path><path d="M329.79,121.79l-109.5,87.49c-.46-1-.91-2-1.33-3a71.24,71.24,0,0,1-5.21-20.48h0l94.58-75.57A71.15,71.15,0,0,1,329.79,121.79Z" style="fill:#fafafa;opacity:0.4"></path><path d="M355.06,160.12,252.11,242.37a71.86,71.86,0,0,1-24.77-21.28l112.41-89.82A72,72,0,0,1,355.06,160.12Z" style="fill:#fafafa;opacity:0.4"></path><path d="M204.39,151l-.95-.32a87.68,87.68,0,0,1,6.18-14.05l.87.48A86.93,86.93,0,0,0,204.39,151Zm12.14-23.34-.81-.59a86.7,86.7,0,0,1,31.37-26.21l.45.9A85.74,85.74,0,0,0,216.53,127.69Zm109.59-24.53A83.6,83.6,0,0,0,316,98.54l.36-.94a85.62,85.62,0,0,1,10.22,4.68Z" style="fill:#7E57C2"></path><path d="M204.39,151l-.95-.32a87.68,87.68,0,0,1,6.18-14.05l.87.48A86.93,86.93,0,0,0,204.39,151Zm12.14-23.34-.81-.59a86.7,86.7,0,0,1,31.37-26.21l.45.9A85.74,85.74,0,0,0,216.53,127.69Zm109.59-24.53A83.6,83.6,0,0,0,316,98.54l.36-.94a85.62,85.62,0,0,1,10.22,4.68Z" style="opacity:0.30000000000000004"></path><path d="M359.87,141.74a83,83,0,0,0-152.65,64.73c-6.68,2.34-13.28,4.85-19.84,7.44q-14.19,5.63-28.12,11.76c-9.28,4.11-18.52,8.3-27.67,12.68-4.59,2.15-9.12,4.42-13.69,6.62a19.79,19.79,0,0,0-6.34,4.35,19.15,19.15,0,0,0-2.57,3.37,17.25,17.25,0,0,0-2,4.63,12.72,12.72,0,0,0,7.33,14.85,17.56,17.56,0,0,0,4.86,1.26,18.88,18.88,0,0,0,4.25,0,19.76,19.76,0,0,0,7.3-2.39c4.53-2.29,9.09-4.5,13.59-6.85,9-4.59,18-9.38,26.89-14.24S189,240,197.68,234.78c6-3.63,12.06-7.34,18-11.22a83,83,0,0,0,144.21-81.82Zm-45.46,95.53a65.53,65.53,0,1,1,29.75-87.78A65.53,65.53,0,0,1,314.41,237.27Z" style="fill:#7E57C2"></path><path d="M359.87,141.74a83,83,0,0,0-152.65,64.73c-6.68,2.34-13.28,4.85-19.84,7.44q-14.19,5.63-28.12,11.76c-9.28,4.11-18.52,8.3-27.67,12.68-4.59,2.15-9.12,4.42-13.69,6.62a19.79,19.79,0,0,0-6.34,4.35,19.15,19.15,0,0,0-2.57,3.37,17.25,17.25,0,0,0-2,4.63,12.72,12.72,0,0,0,7.33,14.85,17.56,17.56,0,0,0,4.86,1.26,18.88,18.88,0,0,0,4.25,0,19.76,19.76,0,0,0,7.3-2.39c4.53-2.29,9.09-4.5,13.59-6.85,9-4.59,18-9.38,26.89-14.24S189,240,197.68,234.78c6-3.63,12.06-7.34,18-11.22a83,83,0,0,0,144.21-81.82Zm-45.46,95.53a65.53,65.53,0,1,1,29.75-87.78A65.53,65.53,0,0,1,314.41,237.27Z" style="opacity:0.30000000000000004"></path><path d="M158,158.55c0,.59.31,1.07.7,1.07s.7-.48.7-1.07-.31-1.07-.7-1.07S158,158,158,158.55Z" style="fill:#263238"></path><path d="M158.28,159.62a21.33,21.33,0,0,0,2.83,5.07,3.41,3.41,0,0,1-2.83.53Z" style="fill:#de5753"></path><path d="M155.93,155.26a.37.37,0,0,1-.29-.14.36.36,0,0,1,.08-.49,3.43,3.43,0,0,1,3.13-.53.35.35,0,1,1-.25.65,2.73,2.73,0,0,0-2.47.45A.36.36,0,0,1,155.93,155.26Z" style="fill:#263238"></path><path d="M137.8,163c1,5.37,2.1,15.22-1.66,18.81,0,0,1.47,5.45,11.46,5.45,11,0,5.24-5.45,5.24-5.45-6-1.44-5.83-5.88-4.79-10.06Z" style="fill:#e4897b"></path><path d="M131.65,184.64c1.19-1.85-.81-6.34-.81-6.34s17.68-4.45,24.91,2.38c1.5,1.41-.16,3.49-.16,3.49Z" style="fill:#7E57C2"></path><path d="M131.65,184.64c1.19-1.85-.81-6.34-.81-6.34s17.68-4.45,24.91,2.38c1.5,1.41-.16,3.49-.16,3.49Z" style="opacity:0.1"></path><path d="M102.4,388.67c-.93,0-2.42-1.55-2.86-2.13a.17.17,0,0,1,0-.19.18.18,0,0,1,.16-.09c.11,0,2.56.22,3.23,1.09a.81.81,0,0,1,.16.66.72.72,0,0,1-.52.65Zm-2.32-2c.73.84,1.9,1.79,2.4,1.67,0,0,.2-.05.26-.37a.45.45,0,0,0-.1-.38A4.67,4.67,0,0,0,100.08,386.65Z" style="fill:#7E57C2"></path><path d="M100.19,386.65a2.68,2.68,0,0,1-.54,0,.16.16,0,0,1-.14-.11.2.2,0,0,1,0-.18c.07-.06,1.54-1.59,2.65-1.59h0a.94.94,0,0,1,.71.3.57.57,0,0,1,.14.7C102.72,386.33,101.19,386.65,100.19,386.65Zm-.13-.35c1,0,2.45-.31,2.69-.75,0,0,.07-.13-.09-.29a.59.59,0,0,0-.46-.19h0A4.23,4.23,0,0,0,100.06,386.3Z" style="fill:#7E57C2"></path><path d="M168.39,411.37a13.25,13.25,0,0,1-2.26-.21A.16.16,0,0,1,166,411a.18.18,0,0,1,.08-.18c.11-.06,2.67-1.53,3.9-1.19a.86.86,0,0,1,.55.4.66.66,0,0,1,0,.76C170.24,411.24,169.33,411.37,168.39,411.37Zm-1.69-.47c1.36.2,3.22.19,3.56-.29.05-.06.09-.17,0-.38a.56.56,0,0,0-.34-.25C169.14,409.78,167.59,410.44,166.7,410.9Z" style="fill:#7E57C2"></path><path d="M166.17,411.17a.18.18,0,0,1-.1,0A.16.16,0,0,1,166,411a4.88,4.88,0,0,1,1.14-2.83,1.25,1.25,0,0,1,1-.29c.48,0,.62.29.65.48.13.83-1.62,2.42-2.51,2.82Zm1.79-3a.91.91,0,0,0-.6.22,4,4,0,0,0-1,2.27c.9-.55,2.1-1.79,2-2.29,0,0,0-.17-.34-.2Z" style="fill:#7E57C2"></path><polygon points="158.09 410.99 165.44 410.99 166.17 393.98 158.82 393.98 158.09 410.99" style="fill:#e4897b"></polygon><polygon points="92.64 381.79 98.78 385.81 112.34 374.36 106.19 370.33 92.64 381.79" style="fill:#e4897b"></polygon><path d="M99.79,385.43l-6.38-5.23a.63.63,0,0,0-.8,0l-5.26,4.13a1.08,1.08,0,0,0,0,1.69c2.26,1.79,3.45,2.55,6.26,4.85,1.73,1.41,6,5.73,8.41,7.68s4.62-.15,3.82-1.16c-3.59-4.55-5-8.44-5.41-10.85A1.81,1.81,0,0,0,99.79,385.43Z" style="fill:#263238"></path><path d="M165.39,410.14h-8a.65.65,0,0,0-.63.5l-1.45,6.53a1.07,1.07,0,0,0,1.06,1.31c2.89-.05,7.07-.22,10.71-.22,4.25,0,7.93.23,12.91.23,3,0,3.86-3.05,2.59-3.32-5.74-1.26-10.44-1.39-15.4-4.46A3.44,3.44,0,0,0,165.39,410.14Z" style="fill:#263238"></path><path d="M121.66,184c-6.37,3-10,23.1-10,23.1l15.57,6.21a115.83,115.83,0,0,0,5.51-17.15C134.88,186.9,128.18,180.9,121.66,184Z" style="fill:#263238"></path><path d="M129.92,195.33c-3.85,3.9-5.61,11.54-6.38,16.51l3.73,1.49a116.7,116.7,0,0,0,5.4-16.65C132.34,194.56,131.52,193.71,129.92,195.33Z" style="fill:#203048"></path><path d="M164.14,183.86s7.82,8.84.44,63.5H125.29c-.27-6,3.52-35.45-2.3-63.87a100.56,100.56,0,0,1,13.15-1.66,140.87,140.87,0,0,1,16.7,0A74.19,74.19,0,0,1,164.14,183.86Z" style="fill:#263238"></path><path d="M167.73,205.08l-6.62-11.41a58.31,58.31,0,0,0-1.55,16.27c.18,3.92,3.77,18.44,7,20.56A230.84,230.84,0,0,0,167.73,205.08Z" style="fill:#203048"></path><path d="M168.65,191.67c1,4.86,2,9.84,3.07,14.72s2.18,9.78,3.47,14.51c.33,1.17.64,2.37,1,3.49l.27.86.13.43,0-.05c-.07-.09-.15-.1-.09,0a3.35,3.35,0,0,0,1.52.95,17.84,17.84,0,0,0,2.91.81,77.79,77.79,0,0,0,14.3.93l.95,5.44c-1.34.43-2.59.74-3.91,1.05s-2.62.57-3.95.77a42.73,42.73,0,0,1-8.33.56,22.61,22.61,0,0,1-4.6-.6,13.39,13.39,0,0,1-5.28-2.45,9.65,9.65,0,0,1-2.47-3c-.16-.3-.3-.64-.43-.93l-.18-.47-.37-1c-.51-1.27-.93-2.52-1.39-3.77-1.69-5-3.1-10.05-4.34-15.09s-2.31-10.07-3.2-15.24Z" style="fill:#e4897b"></path><path d="M154.33,189.22c-2.07,6.71,6.32,26.72,6.32,26.72l16.71-4.2s-.64-10.4-4.45-18.65C167.17,180.65,156.81,181.17,154.33,189.22Z" style="fill:#263238"></path><path d="M195.09,228.32l8.32-.21-4,8.66s-3.39.45-6.17-4.12l-2.93-3.5,3.37-.67A7.52,7.52,0,0,1,195.09,228.32Z" style="fill:#e4897b"></path><polygon points="208.66 229.72 203.9 236.9 199.41 236.77 203.41 228.11 208.66 229.72" style="fill:#e4897b"></polygon><polygon points="166.17 393.98 165.79 402.75 158.44 402.75 158.82 393.98 166.17 393.98" style="fill:#ce6f64"></polygon><polygon points="106.19 370.33 112.34 374.36 105.34 380.26 99.2 376.24 106.19 370.33" style="fill:#ce6f64"></polygon><path d="M138.26,157.28c.44,7.27.33,11.56,4,15.29,5.52,5.63,14.51,2.3,16.25-5,1.57-6.54.59-17.34-6.53-20.24A10,10,0,0,0,138.26,157.28Z" style="fill:#e4897b"></path><path d="M129.7,156c1.81,6.63,6.07,14.27,11.58,14.76,6.84.6,9.93-6.47,10.83-13.77,4.1-2.81,1.95-5.9,6.06-6.29,5.28-.5,3.59-10.16-3.36-11.71,0,0,2.33,4.35-2.56,2.15a28.22,28.22,0,0,0-14.94-2.59s6.24,3.12.14,4.51-7.92,5.15-5.11,7.42C132.34,150.49,128.51,151.64,129.7,156Z" style="fill:#263238"></path><path d="M147.94,158.49a8.22,8.22,0,0,0,2.07,4.87c1.6,1.77,3.27.67,3.55-1.48.26-1.93-.27-5.18-2.23-6.16S147.81,156.31,147.94,158.49Z" style="fill:#e4897b"></path><path d="M150.64,247.36s7.16,51.85,1.52,72.63c-8.94,32.9-43.12,60.67-43.12,60.67l-11.59-7.6s29.11-23.45,32.67-51c3.2-24.73-4.83-54.64-4.83-74.71Z" style="fill:#7E57C2"></path><path d="M150.64,247.36s7.16,51.85,1.52,72.63c-8.94,32.9-43.12,60.67-43.12,60.67l-11.59-7.6s29.11-23.45,32.67-51c3.2-24.73-4.83-54.64-4.83-74.71Z" style="opacity:0.1"></path><path d="M153.6,277a48.4,48.4,0,0,0-6.27-6c1.22,16.83,2.22,41.76,1.11,59.47A76.41,76.41,0,0,0,152.16,320C154.91,309.85,154.62,292.32,153.6,277Z" style="fill:#7E57C2"></path><path d="M153.6,277a48.4,48.4,0,0,0-6.27-6c1.22,16.83,2.22,41.76,1.11,59.47A76.41,76.41,0,0,0,152.16,320C154.91,309.85,154.62,292.32,153.6,277Z" style="opacity:0.30000000000000004"></path><path d="M113.71,378.07c.05,0-4.49,3-4.49,3l-12.66-8.3,4-3.31Z" style="fill:#7E57C2"></path><path d="M113.71,378.07c.05,0-4.49,3-4.49,3l-12.66-8.3,4-3.31Z" style="opacity:0.30000000000000004"></path><path d="M164.58,247.36s11.06,46.9,11.84,69.31c.88,25.12-7.89,84.38-7.89,84.38H156.08s-1.53-59.72-2.08-82.6c-.61-24.95-15.25-71.09-15.25-71.09Z" style="fill:#7E57C2"></path><path d="M164.58,247.36s11.06,46.9,11.84,69.31c.88,25.12-7.89,84.38-7.89,84.38H156.08s-1.53-59.72-2.08-82.6c-.61-24.95-15.25-71.09-15.25-71.09Z" style="opacity:0.1"></path><path d="M170.92,396.1c.06,0-.7,5.16-.7,5.16H155.08l-.41-4.61Z" style="fill:#7E57C2"></path><path d="M170.92,396.1c.06,0-.7,5.16-.7,5.16H155.08l-.41-4.61Z" style="opacity:0.30000000000000004"></path></g></svg>